<?xml version="1.0" encoding="UTF-8"?>
<!DOCTYPE svg PUBLIC "-//W3C//DTD SVG 1.1//EN" "http://www.w3.org/Graphics/SVG/1.1/DTD/svg11.dtd">
<!-- Creator: CorelDRAW X5 -->
<svg xmlns="http://www.w3.org/2000/svg" xml:space="preserve" width="101.54mm" height="130mm" style="shape-rendering:geometricPrecision; text-rendering:geometricPrecision; image-rendering:optimizeQuality; fill-rule:evenodd; clip-rule:evenodd"
viewBox="0 0 10154 13000"
 xmlns:xlink="http://www.w3.org/1999/xlink">
 <defs>
  <style type="text/css">
   <![CDATA[
    .fil0 {fill:#332C2B;fill-rule:nonzero}
   ]]>
  </style>
 </defs>
 <g id="Layer_x0020_1">
  <metadata id="CorelCorpID_0Corel-Layer"/>
  <path class="fil0" d="M7259 10059c-636,480 -1481,755 -2319,755 -2085,0 -3177,-1164 -3177,-2313 0,-683 510,-1395 1360,-1395 502,0 1285,247 1187,1225 -15,-99 -144,-447 -524,-447 -212,0 -391,175 -391,381 0,84 -20,108 -35,108 -141,0 -316,-207 -280,-554 -546,610 -157,1041 34,1218 43,40 107,100 108,121 0,60 -156,158 -550,122 685,816 1482,596 1905,477 105,-29 231,-84 264,-35 56,75 -93,426 -295,610 1153,-151 1532,-813 1724,-1159 64,-116 120,-217 166,-217 120,0 227,491 147,868 765,-712 544,-1477 433,-1819 -27,-84 -51,-156 -51,-198 0,-63 20,-81 64,-92 191,0 414,68 681,195 -708,-1656 -3155,-1429 -3749,-1795 450,-24 1020,-354 1523,-678 178,-115 315,-229 426,-321 116,-96 216,-180 270,-180 149,0 169,437 93,704 372,-240 548,-601 548,-939 0,-337 -186,-546 -309,-685 -38,-43 -90,-101 -92,-122 0,-19 14,-42 42,-62 128,-94 378,-129 639,-70 -574,-737 -1287,-528 -1678,-400 -118,39 -294,94 -294,45 0,-139 184,-424 511,-623 -668,-45 -1585,457 -2246,810 -540,289 -1048,560 -1341,560 -181,0 -243,-65 -243,-132 0,-500 1772,-1838 3645,-1838 710,0 1290,175 1677,506 336,288 521,693 521,1143 0,690 -326,1166 -522,1451 -100,146 -155,227 -155,312 0,134 125,226 331,378 405,299 1084,799 1084,1825 0,1162 -615,1870 -1132,2259zm-1792 -8131l-34 0c-853,5 -1815,288 -2644,778 -751,444 -1237,961 -1237,1318 0,85 33,163 95,225 235,234 890,229 1648,229 1127,0 1591,61 1591,241 0,217 -1329,753 -1329,1219 0,540 1115,641 1620,731 476,85 524,343 524,519 0,330 -122,623 -343,825 -209,191 -468,312 -848,295 121,-868 -495,-1454 -1390,-1454 -1012,0 -1616,837 -1616,1647 0,1278 1180,2571 3434,2571 892,0 1794,-294 2474,-807 563,-425 1234,-1197 1234,-2464 0,-1156 -773,-1726 -1189,-2032 -83,-61 -184,-136 -220,-177 19,-37 65,-104 104,-160 198,-289 567,-826 567,-1596 0,-878 -640,-1902 -2443,-1907zm-1021 6625c446,24 811,-96 1088,-349 271,-248 426,-618 426,-1016 0,-225 -80,-386 -256,-527 660,135 1368,473 1732,1001 -190,-66 -307,-84 -431,-84 -95,0 -179,104 -179,229 0,64 25,142 57,241 99,306 259,798 -155,1418 8,-256 -57,-461 -139,-563 -57,-71 -115,-86 -153,-86 -128,0 -195,121 -287,289 -168,303 -440,796 -1301,1037 123,-188 165,-390 120,-499 -22,-54 -67,-86 -120,-86 -1,0 -2,0 -3,0 -83,4 -186,33 -305,66 -388,109 -961,269 -1552,-207 120,-10 224,-46 295,-107 51,-44 78,-97 78,-151 0,-81 -67,-144 -152,-223 -169,-157 -392,-364 -213,-794 24,94 67,178 128,246 71,79 158,125 237,125 174,0 174,-149 174,-247 0,-129 118,-242 252,-242 380,0 524,562 398,866 127,-98 224,-242 262,-337zm-628 -2615l-2 0c5,-142 393,-390 650,-555 379,-242 678,-433 678,-665 0,-94 -36,-180 -105,-248 -257,-256 -980,-253 -1745,-250 -279,1 -574,10 -856,-14 287,-95 635,-282 1020,-488 564,-301 1193,-638 1783,-772 -156,156 -259,345 -259,499 0,63 38,130 146,130 95,0 207,-37 336,-79 342,-112 799,-261 1313,116 -176,-1 -320,48 -402,112 -79,62 -96,127 -96,172 0,71 53,131 127,214 116,130 274,309 274,593 0,235 -99,480 -242,654 21,-153 -6,-380 -97,-484 -43,-49 -99,-75 -163,-75 -104,0 -205,84 -359,212 -108,90 -242,201 -413,311 -505,325 -1078,657 -1499,657 -25,0 -91,-7 -91,-40z"/>
 </g>
</svg>
